<svg id="SvgjsSvg1033" width="100%" height="100%" xmlns="http://www.w3.org/2000/svg" version="1.1" xlink="http://www.w3.org/1999/xlink" xmlns:svgjs="http://svgjs.com/svgjs" preserveAspectRatio="xMidYMid meet" viewBox="0 0.0000050067901611328125 217.32992553710938 147" overflow="visible"><defs id="SvgjsDefs1034"></defs><g id="SvgjsG1035" transform="scale(0.563498049640656)" opacity="1"><g id="SvgjsG1036" class="7ndlnHfQ3" transform="translate(94.21190705665713, -7.752402166830816) scale(2.191747475528766)" light-content="false" non-strokable="false" fill="#7d680d"><path d="M88.702 36.673a17.958 17.958 0 0 0-5.581-10.066 16.352 16.352 0 0 0-.268-2.992c-1.346-7.352-7.467-12.845-14.811-13.483C64.314 5.98 58.57 3.97 53.064 4.975a16.548 16.548 0 0 0-3.076.882c-3.666-2.045-8.003-2.784-12.122-2.033a18.138 18.138 0 0 0-11.278 7c-.969.025-1.936.128-2.882.302-8.125 1.486-14.328 8.014-15.482 16.099a18.568 18.568 0 0 0-6.916 18.018c1.384 7.586 7.487 13.592 15.025 14.937 3.364 3.563 8.209 5.346 13.053 4.789 4.363 4.535 8.886 5.898 14.362 6.096.187.055.383.091.586.102a14.313 14.313 0 0 0 1.279-.011c1.15 1.534 3.568 5.099 5.916 10.729.625 1.496 1.572 3.768 3.979 4.416.41.11.82.161 1.229.161 2.07 0 4.07-1.291 5.654-2.493 2.396-1.82 3.196-5.145 2.434-10.103.193.011.393.024.59.024 2.154 0 4.342-.621 6.322-1.84 2.441-1.496 4.21-3.676 4.955-6.033a16.256 16.256 0 0 0 9.432-16.365 18.034 18.034 0 0 0 2.578-12.979zM19.723 56.016a2.648 2.648 0 0 0-1.73-.947c-5.719-.683-10.436-5.116-11.468-10.776a13.244 13.244 0 0 1 2.812-10.802c1.12 2.561 3.232 5.475 7.176 6.718.682.213 1.304.31 1.873.31 3.173 0 4.691-2.979 5.655-4.87 1.444-2.84 2.822-5.542 7.726-5.832a10.503 10.503 0 0 0-.408 2.045 2.651 2.651 0 0 0 2.463 2.828c.062.005.123.01.185.01a2.652 2.652 0 0 0 2.643-2.471c.002-.021.226-2.205 1.934-3.637 1.376-1.156 3.443-1.597 6.14-1.308a2.65 2.65 0 0 0 2.915-2.355 2.647 2.647 0 0 0-2.354-2.917c-4.185-.446-7.586.405-10.108 2.517-.031.026-.059.057-.092.082-10.839-1.025-13.92 5.001-15.767 8.631-.331.648-.81 1.586-1.115 1.938-.027-.011-.06-.018-.096-.028-3.721-1.174-4.555-5.435-4.705-6.48.563-6.163 5.16-11.217 11.26-12.33a14.105 14.105 0 0 1 3.185-.205 2.652 2.652 0 0 0 2.39-1.251 12.794 12.794 0 0 1 8.583-5.844 12.865 12.865 0 0 1 6.329.458c-1.073 1.41-2.013 3.271-2.4 5.627a2.648 2.648 0 0 0 2.188 3.04c.146.025.29.041.43.041a2.653 2.653 0 0 0 2.615-2.225c.563-3.43 2.916-4.711 3.02-4.765l-.038.018h-.003c.018-.01.036-.013.055-.023.939-.484 1.95-.828 3.006-1.02 3.983-.728 8.151.897 10.625 4.14a2.657 2.657 0 0 0 2.082 1.041c5.233.051 9.728 3.745 10.83 8.833-2.819-.543-6.744-.708-10.367 1.182-1.756-1.397-4.764-3.061-8.799-2.602a2.651 2.651 0 0 0 .603 5.27c3.548-.405 5.7 2.209 5.774 2.299.435.559 1.066.92 1.767 1.01a2.66 2.66 0 0 0 1.961-.541c3.797-2.958 9.257-1.205 10.569-.718a12.687 12.687 0 0 1 4.427 7.516 12.71 12.71 0 0 1-2.093 9.556c-.717.538-3.439 2.117-7.986-.486a2.647 2.647 0 0 0-3.619.977 2.652 2.652 0 0 0 .98 3.617c2.814 1.617 5.297 2.168 7.373 2.168.947 0 1.805-.118 2.578-.303a10.961 10.961 0 0 1-5.088 7.429c-6.466 3.829-15.514-.972-15.601-1.019a2.65 2.65 0 0 0-3.396.746c-3.076 4.133-7.772 5.201-10.289 5.477-.028 0-.055-.006-.082 0-4.62.092-7.93-.362-11.052-2.705 1.772-1.115 3.486-2.857 4.446-5.434.273.018.548.026.829.026 1.77 0 3.654-.354 5.6-1.229a2.647 2.647 0 0 0 1.332-3.502c-.6-1.332-2.168-1.936-3.503-1.332-5.91 2.652-10.481-2.396-10.694-2.639a2.652 2.652 0 0 0-4.005 3.474c1.062 1.23 2.9 2.765 5.25 3.854-1.292 2.671-4.034 3.14-4.414 3.193a2.083 2.083 0 0 0-.207.036c-.013.002-.022.002-.035.005-.115.024-.233.049-.349.071a10.262 10.262 0 0 1-9.746-3.587zm39.465 23.731c-1.166.881-1.848 1.215-2.187 1.338-.21-.36-.466-.976-.576-1.243-1.8-4.31-3.646-7.539-5.063-9.71 1.975-.628 4.133-1.623 6.152-3.202 2.174 5.97 3.009 11.8 1.674 12.817zm4.328-11.483c-.203-.68-.41-1.32-.613-1.923 1.841.527 4.02.956 6.332 1.013-.088.06-.172.125-.264.183-1.757 1.074-3.737 1.333-5.455.727z"></path><path d="M48.168 46.796a12.076 12.076 0 0 0 5.206 1.196c2.401 0 4.919-.771 6.862-2.875 1.486.709 3.507 1.31 5.68.908 1.705-.318 4.125-1.4 5.96-4.749a2.652 2.652 0 0 0-4.648-2.553c-.672 1.223-1.434 1.922-2.27 2.084-1.439.279-3.245-.877-3.752-1.29a2.639 2.639 0 0 0-2.238-.569 2.629 2.629 0 0 0-1.832 1.395c-1.89 3.711-5.854 2.062-6.642 1.688a2.654 2.654 0 0 0-3.538 1.215 2.659 2.659 0 0 0 1.212 3.55z"></path></g><g id="SvgjsG1037" class="text" transform="translate(193.25999450683594, 260.5704678246469) scale(1)" light-content="false" fill="#1a1a1a"><path d="M-154.14 0L-145.56 0L-150.78 -44.4L-159.24 -44.4L-169.38 -10.38L-179.58 -44.4L-188.1 -44.4L-193.26 0L-184.68 0L-181.38 -28.68L-173.64 0L-165.3 0L-157.56 -29.04Z M-131.04 -1.62C-128.88 -0.34 -126.36 0.3 -123.48 0.3C-116.44 0.3 -110.26 0 -104.94 -0.6L-104.94 -8.04L-121.68 -8.04C-124.16 -8.04 -125.4 -9.36 -125.4 -12L-125.4 -18.12L-107.82 -18.6L-107.82 -25.62L-125.4 -26.1L-125.4 -32.52C-125.4 -34.96 -124.1 -36.18 -121.5 -36.18L-104.94 -36.18L-104.94 -43.62C-111.62 -44.14 -118.02 -44.4 -124.14 -44.4C-126.94 -44.4 -129.33 -43.61 -131.31 -42.03C-133.29 -40.45 -134.28 -37.86 -134.28 -34.26L-134.28 -9.48C-134.28 -5.52 -133.2 -2.9 -131.04 -1.62Z M-88.26 -2.4C-86.26 -0.6 -83.5 0.3 -79.98 0.3C-77.7 0.3 -75.51 -0.03 -73.41 -0.69C-71.31 -1.35 -69.52 -2.12 -68.04 -3L-66.84 0L-60.18 0L-60.18 -25.2C-61.86 -25.32 -63.94 -25.38 -66.42 -25.38C-68.18 -25.38 -70.03 -25.32 -71.97 -25.2C-73.91 -25.08 -75.48 -24.94 -76.68 -24.78L-76.68 -17.76L-68.7 -17.76L-68.7 -9.12C-69.78 -8.76 -71.06 -8.46 -72.54 -8.22C-74.02 -7.98 -75.52 -7.86 -77.04 -7.86C-79.04 -7.86 -80.58 -8.26 -81.66 -9.06C-82.74 -9.86 -83.52 -11.27 -84 -13.29C-84.48 -15.31 -84.72 -18.26 -84.72 -22.14C-84.72 -26.02 -84.48 -28.99 -84 -31.05C-83.52 -33.11 -82.64 -34.59 -81.36 -35.49C-80.08 -36.39 -78.16 -36.84 -75.6 -36.84C-73.08 -36.84 -70.61 -36.75 -68.19 -36.57C-65.77 -36.39 -63.78 -36.2 -62.22 -36L-62.22 -42.84C-64.82 -43.48 -67.26 -43.97 -69.54 -44.31C-71.82 -44.65 -74.38 -44.82 -77.22 -44.82C-81.58 -44.82 -84.95 -43.95 -87.33 -42.21C-89.71 -40.47 -91.35 -37.98 -92.25 -34.74C-93.15 -31.5 -93.6 -27.32 -93.6 -22.2C-93.6 -17.32 -93.21 -13.25 -92.43 -9.99C-91.65 -6.73 -90.26 -4.2 -88.26 -2.4Z M-35.4 -44.4L-49.32 0L-40.2 0L-37.44 -9.3L-22.32 -9.3L-19.5 0L-10.26 0L-24.18 -44.4ZM-24.42 -17.28L-35.34 -17.28L-29.88 -36.78Z M0.6 -44.4L0.6 0L18.84 0C23.28 0 26.61 -0.94 28.83 -2.82C31.05 -4.7 32.16 -7.84 32.16 -12.24C32.16 -15.32 31.43 -17.76 29.97 -19.56C28.51 -21.36 26.7 -22.52 24.54 -23.04C26.5 -23.56 28.02 -24.65 29.1 -26.31C30.18 -27.97 30.72 -30.12 30.72 -32.76C30.72 -40.52 26.5 -44.4 18.06 -44.4ZM18.12 -26.1L9.48 -26.1L9.48 -36.42L18 -36.42C19.28 -36.42 20.31 -36.02 21.09 -35.22C21.87 -34.42 22.26 -33.14 22.26 -31.38C22.26 -29.78 21.89 -28.5 21.15 -27.54C20.41 -26.58 19.4 -26.1 18.12 -26.1ZM18.6 -7.98L9.48 -7.98L9.48 -19.26L18.6 -19.26C20.12 -19.26 21.35 -18.77 22.29 -17.79C23.23 -16.81 23.7 -15.48 23.7 -13.8C23.7 -9.92 22 -7.98 18.6 -7.98Z M44.22 -44.4L44.22 0L53.1 0L53.1 -16.56C55.98 -16.48 58.38 -16.44 60.3 -16.44L67.44 0L76.5 0L68.22 -17.82C70.38 -18.74 72.09 -20.1 73.35 -21.9C74.61 -23.7 75.24 -26.46 75.24 -30.18C75.24 -35.46 74.11 -39.15 71.85 -41.25C69.59 -43.35 66.5 -44.4 62.58 -44.4ZM61.02 -23.58L53.1 -23.58L53.1 -36.42L61.02 -36.42C62.74 -36.42 64.06 -35.97 64.98 -35.07C65.9 -34.17 66.36 -32.54 66.36 -30.18C66.36 -27.74 65.9 -26.03 64.98 -25.05C64.06 -24.07 62.74 -23.58 61.02 -23.58Z M98.94 -44.4L85.02 0L94.14 0L96.9 -9.3L112.02 -9.3L114.84 0L124.08 0L110.16 -44.4ZM109.92 -17.28L99 -17.28L104.46 -36.78Z M134.94 -44.4L134.94 0L143.82 0L143.82 -44.4Z M157.8 -44.4L157.8 0L166.74 0L166.74 -29.28L185.28 0L192.42 0L192.42 -44.4L183.54 -44.4L183.54 -15.12L164.94 -44.4Z"></path></g></g></svg>